<svg xmlns="http://www.w3.org/2000/svg" xmlns:xlink="http://www.w3.org/1999/xlink" class="card" height="336" preserveAspectRatio="none" viewBox="-120 -168 240 336" width="240">
    <symbol id="b" viewBox="-600 -600 1200 1200" preserveAspectRatio="xMinYMid">
        <path d="M-400 0C-350 0 0-450 0-500 0-450 350 0 400 0 350 0 0 450 0 500 0 450-350 0-400 0z" fill="red"/>
    </symbol>
    <symbol id="a" viewBox="-500 -500 1000 1000" preserveAspectRatio="xMinYMid">
        <path d="M-225-225c-20-40 25-235 225-235s225 135 225 235c0 200-450 385-450 685h450V300" stroke="red" stroke-width="80" stroke-linecap="square" stroke-miterlimit="1.5" fill="none"/>
    </symbol>
    <rect width="239" height="335" x="-119.5" y="-167.5" rx="12" ry="12" fill="#feffff"/>
    <use xlink:href="#a" height="32" x="-114.4" y="-156"/>
    <use xlink:href="#b" height="26.769" x="-111.784" y="-119"/>
    <use xlink:href="#b" height="70" x="-35" y="-135.501"/>
    <g transform="rotate(180)">
        <use xlink:href="#a" height="32" x="-114.4" y="-156"/>
        <use xlink:href="#b" height="26.769" x="-111.784" y="-119"/>
        <use xlink:href="#b" height="70" x="-35" y="-135.501"/>
    </g>
</svg>
