<svg xmlns="http://www.w3.org/2000/svg" xmlns:xlink="http://www.w3.org/1999/xlink" class="card" height="336" preserveAspectRatio="none" viewBox="-120 -168 240 336" width="240">
    <symbol id="b" viewBox="-600 -600 1200 1200" preserveAspectRatio="xMinYMid">
        <path d="M30 150c5 235 55 250 100 350h-260c45-100 95-115 100-350a10 10 0 0 0-20 0 210 210 0 1 1-74-201 10 10 0 0 0 14-14 230 230 0 1 1 220 0 10 10 0 0 0 14 14 210 210 0 1 1-74 201 10 10 0 0 0-20 0z"/>
    </symbol>
    <symbol id="a" viewBox="-500 -500 1000 1000" preserveAspectRatio="xMinYMid">
        <path d="M50 460h200m-100 0v-920l-450 635v25h570" stroke="#000" stroke-width="80" stroke-linecap="square" stroke-miterlimit="1.5" fill="none"/>
    </symbol>
    <rect width="239" height="335" x="-119.5" y="-167.5" rx="12" ry="12" fill="#feffff"/>
    <use xlink:href="#a" height="32" x="-114.4" y="-156"/>
    <use xlink:href="#b" height="26.769" x="-111.784" y="-119"/>
    <use xlink:href="#b" height="70" x="-87.501" y="-135.588"/>
    <use xlink:href="#b" height="70" x="17.501" y="-135.588"/>
    <g transform="rotate(180)">
        <use xlink:href="#a" height="32" x="-114.4" y="-156"/>
        <use xlink:href="#b" height="26.769" x="-111.784" y="-119"/>
        <use xlink:href="#b" height="70" x="-87.501" y="-135.588"/>
        <use xlink:href="#b" height="70" x="17.501" y="-135.588"/>
    </g>
</svg>
