<svg xmlns="http://www.w3.org/2000/svg" xmlns:xlink="http://www.w3.org/1999/xlink" class="card" height="336" preserveAspectRatio="none" viewBox="-120 -168 240 336" width="240">
    <symbol id="b" viewBox="-600 -600 1200 1200" preserveAspectRatio="xMinYMid">
        <path d="M0-300c0-100 100-200 200-200s200 100 200 250C400 0 0 400 0 500 0 400-400 0-400-250c0-150 100-250 200-250S0-400 0-300z" fill="red"/>
    </symbol>
    <symbol id="a" viewBox="-500 -500 1000 1000" preserveAspectRatio="xMinYMid">
        <path d="M-1-50a205 205 0 1 1 2 0h-2a255 255 0 1 0 2 0z" stroke="red" stroke-width="80" stroke-linecap="square" stroke-miterlimit="1.5" fill="none"/>
    </symbol>
    <rect width="239" height="335" x="-119.5" y="-167.5" rx="12" ry="12" fill="#feffff"/>
    <use xlink:href="#a" height="32" x="-114.4" y="-156"/>
    <use xlink:href="#b" height="26.769" x="-111.784" y="-119"/>
    <use xlink:href="#b" height="70" x="-87.501" y="-135.501"/>
    <use xlink:href="#b" height="70" x="17.501" y="-135.501"/>
    <use xlink:href="#b" height="70" x="-35" y="-85.25"/>
    <use xlink:href="#b" height="70" x="-87.501" y="-35"/>
    <use xlink:href="#b" height="70" x="17.501" y="-35"/>
    <g transform="rotate(180)">
        <use xlink:href="#a" height="32" x="-114.4" y="-156"/>
        <use xlink:href="#b" height="26.769" x="-111.784" y="-119"/>
        <use xlink:href="#b" height="70" x="-87.501" y="-135.501"/>
        <use xlink:href="#b" height="70" x="17.501" y="-135.501"/>
        <use xlink:href="#b" height="70" x="-35" y="-85.25"/>
    </g>
</svg>
