<svg xmlns="http://www.w3.org/2000/svg" xmlns:xlink="http://www.w3.org/1999/xlink" class="card" height="336" preserveAspectRatio="none" viewBox="-120 -168 240 336" width="240">
    <symbol id="b" viewBox="-600 -600 1200 1200" preserveAspectRatio="xMinYMid">
        <path d="M-400 0C-350 0 0-450 0-500 0-450 350 0 400 0 350 0 0 450 0 500 0 450-350 0-400 0z" fill="red"/>
    </symbol>
    <symbol id="a" viewBox="-500 -500 1000 1000" preserveAspectRatio="xMinYMid">
        <path d="M250-100a250 250 0 0 1-500 0v-110a250 250 0 0 1 500 0v420A250 250 0 0 1 0 460c-150 0-180-60-200-85" stroke="red" stroke-width="80" stroke-linecap="square" stroke-miterlimit="1.5" fill="none"/>
    </symbol>
    <rect width="239" height="335" x="-119.5" y="-167.5" rx="12" ry="12" fill="#feffff"/>
    <use xlink:href="#a" height="32" x="-114.4" y="-156"/>
    <use xlink:href="#b" height="26.769" x="-111.784" y="-119"/>
    <use xlink:href="#b" height="70" x="-87.501" y="-135.501"/>
    <use xlink:href="#b" height="70" x="17.501" y="-135.501"/>
    <use xlink:href="#b" height="70" x="-87.501" y="-68.5"/>
    <use xlink:href="#b" height="70" x="17.501" y="-68.5"/>
    <use xlink:href="#b" height="70" x="-35" y="-35"/>
    <g transform="rotate(180)">
        <use xlink:href="#a" height="32" x="-114.4" y="-156"/>
        <use xlink:href="#b" height="26.769" x="-111.784" y="-119"/>
        <use xlink:href="#b" height="70" x="-87.501" y="-135.501"/>
        <use xlink:href="#b" height="70" x="17.501" y="-135.501"/>
        <use xlink:href="#b" height="70" x="-87.501" y="-68.5"/>
        <use xlink:href="#b" height="70" x="17.501" y="-68.5"/>
    </g>
</svg>
