<?xml version="1.0" standalone="no"?>
<!DOCTYPE svg PUBLIC "-//W3C//DTD SVG 20010904//EN"
 "http://www.w3.org/TR/2001/REC-SVG-20010904/DTD/svg10.dtd">
<svg version="1.0" xmlns="http://www.w3.org/2000/svg"
 width="140.000000pt" height="140.000000pt" viewBox="0 0 140.000000 140.000000"
 preserveAspectRatio="xMidYMid meet">
<metadata>
Created by potrace 1.14, written by Peter Selinger 2001-2017
</metadata>
<g transform="translate(0.000000,140.000000) scale(0.100000,-0.100000)"
fill="#000000" stroke="none">
<path d="M276 1346 c-10 -28 -49 -130 -86 -226 -143 -368 -177 -507 -167 -684
3 -63 13 -125 27 -164 l21 -62 -28 -25 c-15 -13 -31 -25 -35 -25 -5 0 -8 -36
-8 -80 l0 -80 28 0 27 0 -3 84 c-3 83 -3 84 27 106 l31 21 0 -105 c0 -83 3
-106 14 -106 11 0 12 22 8 113 l-5 114 44 35 c58 47 70 53 63 34 -3 -9 -13
-16 -20 -16 -8 0 -19 -12 -25 -27 -7 -16 -16 -38 -22 -50 -5 -12 -7 -33 -5
-47 3 -15 0 -27 -8 -30 -22 -8 -16 -51 10 -75 14 -13 23 -28 20 -35 -3 -7 14
-11 51 -12 30 -1 55 0 55 1 0 2 -21 13 -47 25 -56 26 -83 48 -83 67 0 24 40
14 98 -26 32 -21 64 -46 71 -55 7 -9 25 -16 39 -16 l25 0 -7 196 c-6 162 -5
196 6 191 7 -3 46 -20 86 -37 188 -81 423 -88 771 -24 122 23 163 36 150 48
-2 2 -47 -4 -99 -15 -176 -34 -310 -49 -446 -49 -145 0 -292 18 -257 31 11 4
38 3 59 -1 31 -7 48 -5 79 9 31 15 73 20 185 24 90 4 196 15 280 31 195 36
200 37 200 51 0 10 -8 11 -33 4 -78 -21 -335 -59 -439 -64 -110 -6 -112 -6
-78 10 19 9 80 21 135 26 55 5 163 21 240 35 77 15 148 27 158 27 16 1 17 25
16 367 0 299 -3 360 -13 337 l-12 -28 -20 36 -19 36 31 28 c27 24 30 34 30 79
l-1 52 -294 0 -294 0 27 -21 c40 -32 22 -36 -24 -5 -22 14 -43 26 -47 26 -16
0 42 -49 78 -65 35 -16 52 -35 32 -35 -18 0 -113 61 -127 81 -8 12 -20 19 -26
17 -21 -7 76 -86 129 -105 54 -19 70 -38 24 -27 -66 16 -126 49 -163 92 -22
25 -43 42 -47 38 -10 -10 76 -95 119 -117 21 -10 60 -24 87 -30 49 -10 49 -11
81 -82 17 -40 62 -129 100 -198 65 -118 68 -129 58 -157 -14 -36 -3 -55 16
-29 17 22 21 22 41 -9 16 -24 16 -27 -1 -45 -9 -10 -28 -19 -41 -19 -13 0 -26
-6 -28 -12 -51 -147 -91 -196 -201 -248 -38 -18 -98 -46 -134 -64 -35 -17 -69
-29 -75 -28 -5 2 -44 5 -85 5 -71 2 -75 3 -93 32 -146 235 -187 338 -186 460
1 44 4 91 8 104 6 21 8 22 20 7 18 -22 57 -20 98 5 45 28 51 20 12 -17 -25
-24 -38 -29 -77 -28 -42 1 -44 1 -17 -7 46 -14 82 -1 113 39 15 20 31 40 37
44 5 4 7 8 5 10 -31 20 -101 53 -125 59 l-30 7 33 1 c18 1 47 -6 63 -15 43
-22 49 -10 8 15 -40 25 -86 27 -117 5 -21 -15 -22 -14 -22 19 0 30 5 37 36 52
44 21 127 16 151 -8 23 -22 20 -133 -6 -234 -27 -105 -31 -173 -11 -183 13 -7
51 -24 85 -39 6 -2 2 5 -8 16 -10 12 -31 23 -48 27 -37 7 -38 27 -4 161 26
104 32 205 15 249 -19 51 -105 71 -175 42 -49 -21 -47 3 4 43 38 31 122 171
102 171 -6 0 -24 -26 -40 -57 -35 -70 -101 -139 -101 -107 0 11 14 33 31 50
35 33 74 103 63 112 -4 4 -9 1 -11 -6 -9 -25 -68 -106 -80 -110 -23 -7 -13 22
22 67 19 24 33 47 29 50 -3 3 -18 -9 -33 -27 -29 -36 -50 -33 -27 3 14 21 13
23 -8 23 -18 0 -26 -11 -40 -52z m-50 -258 c-95 -276 -118 -378 -118 -528 -1
-102 15 -217 37 -271 4 -12 -3 -24 -25 -39 -17 -12 -33 -20 -36 -18 -2 3 -13
40 -24 83 -40 157 -19 333 69 583 81 228 166 440 169 423 2 -9 -31 -114 -72
-233z m214 -72 c0 -14 -3 -27 -7 -29 -5 -3 -8 8 -8 24 0 16 3 29 8 29 4 0 7
-11 7 -24z m-81 -31 c1 -5 -6 -2 -15 7 -10 9 -13 21 -8 29 5 9 9 8 15 -7 4
-10 8 -23 8 -29z m111 25 c0 -5 -4 -10 -10 -10 -5 0 -10 5 -10 10 0 6 5 10 10
10 6 0 10 -4 10 -10z m733 -295 c0 -6 -7 -11 -16 -13 -12 -3 -15 1 -11 13 7
17 25 17 27 0z m24 -32 c2 -6 -13 -14 -34 -17 -21 -4 -50 -9 -65 -12 -21 -4
-28 -2 -28 9 0 11 17 18 53 25 59 11 69 10 74 -5z m28 -32 c7 -12 -11 -17 -95
-31 -82 -13 -80 -13 -74 4 9 23 157 46 169 27z m39 -50 l28 -29 -54 -11 c-80
-16 -180 -31 -208 -31 -21 0 -22 2 -10 14 8 7 67 22 130 31 63 10 110 20 103
22 -6 2 -51 -3 -100 -11 -107 -19 -116 -19 -111 -3 3 6 44 19 94 28 49 9 92
17 95 18 3 1 18 -12 33 -28z m44 -53 c-4 -13 -169 -47 -293 -62 -55 -6 -59 -5
-44 9 10 10 64 23 150 36 74 11 136 23 138 25 11 10 52 3 49 -8z m27 -28 c3
-6 0 -12 -7 -15 -29 -10 -287 -54 -358 -60 -66 -6 -73 -5 -55 7 11 8 76 22
145 32 69 9 152 23 185 31 77 17 83 17 90 5z m-897 -102 c12 -23 20 -43 18
-45 -2 -3 -27 8 -56 22 -50 25 -51 27 -34 46 26 29 47 23 72 -23z m-108 -27
c0 -15 -5 -18 -21 -14 -21 6 -21 7 -4 20 24 17 25 17 25 -6z m-4 -45 c3 -8 4
-26 2 -40 l-3 -26 -28 23 c-20 15 -26 27 -22 40 8 20 43 23 51 3z m-71 -6 c-3
-5 -12 -10 -18 -10 -7 0 -6 4 3 10 19 12 23 12 15 0z m38 -60 c30 -26 56 -85
43 -97 -8 -8 -113 102 -109 115 7 20 30 14 66 -18z m-13 -79 c44 -43 60 -66
60 -86 l0 -27 -37 32 c-21 17 -59 47 -85 66 -34 26 -45 39 -41 54 9 34 40 22
103 -39z m-59 -42 c74 -52 119 -101 119 -127 0 -24 -1 -24 -42 12 -24 19 -67
52 -95 71 -34 23 -53 43 -53 56 0 27 20 24 71 -12z"/>
<path d="M735 1180 c-39 -8 -66 -23 -89 -49 -24 -27 -7 -27 37 -1 19 12 57 23
83 26 43 5 58 1 117 -29 42 -22 67 -31 67 -23 0 18 -89 65 -142 74 -23 5 -56
5 -73 2z"/>
<path d="M689 1063 c-62 -59 -73 -79 -38 -70 11 3 39 -3 63 -14 41 -18 46 -18
97 -3 30 9 73 18 97 21 49 6 57 23 9 23 -18 0 -49 11 -71 26 -21 14 -56 29
-78 32 -27 3 -35 8 -26 13 24 16 62 9 117 -21 30 -16 58 -27 63 -24 5 3 -6 14
-24 23 -18 10 -46 25 -63 34 -54 30 -81 22 -146 -40z m110 -40 c1 32 5 33 38
7 l25 -19 -25 -12 c-38 -17 -57 -5 -56 33 l2 33 7 -35 c7 -31 7 -32 9 -7z
m-89 -3 c0 -13 -5 -18 -15 -14 -16 7 -19 17 -8 27 12 13 23 7 23 -13z"/>
<path d="M660 955 c0 -12 62 -35 92 -34 30 1 29 2 -10 8 -23 4 -48 13 -54 19
-12 12 -28 16 -28 7z"/>
<path d="M640 831 c0 -5 7 -12 16 -15 9 -3 14 -15 12 -28 -3 -21 -8 -23 -52
-20 -36 2 -47 0 -44 -10 6 -17 85 -23 104 -7 20 16 18 53 -4 72 -21 19 -32 22
-32 8z"/>
<path d="M470 639 c0 -24 2 -25 64 -24 36 1 71 7 79 13 11 9 25 9 60 -2 47
-14 57 -12 57 9 0 12 -55 13 -175 2 -36 -3 -55 0 -67 11 -17 14 -18 13 -18 -9z"/>
<path d="M530 576 c0 -8 8 -24 19 -37 18 -23 18 -23 65 -5 25 10 46 24 46 32
0 12 -4 12 -30 -1 -39 -20 -57 -19 -72 5 -15 23 -28 26 -28 6z"/>
<path d="M561 499 c-13 -5 -21 -12 -18 -15 3 -3 15 -1 26 5 16 9 29 8 58 -4
32 -14 36 -14 23 -1 -21 20 -60 27 -89 15z"/>
<path d="M443 223 c4 -38 7 -103 7 -145 l0 -78 38 1 c37 1 37 1 9 11 -50 18
-25 33 62 36 l83 3 -6 -26 c-4 -14 -2 -25 3 -25 5 0 12 11 15 25 6 24 9 25 59
19 28 -3 84 -13 122 -21 39 -9 90 -17 115 -19 l45 -4 130 124 c71 69 127 128
123 131 -3 4 -55 -1 -115 -10 -248 -36 -444 -30 -602 20 -42 14 -80 25 -85 25
-5 0 -6 -30 -3 -67z m255 -18 c1 -1 -2 -14 -7 -29 -7 -18 -18 -26 -33 -26 -33
0 -146 28 -171 42 -22 12 -21 12 8 19 26 6 195 1 203 -6z m200 -24 c54 -11
116 -27 138 -36 35 -15 37 -18 19 -26 -11 -4 -51 -6 -90 -3 -94 6 -265 25
-265 29 0 2 4 15 10 29 12 33 48 34 188 7z m-236 -71 c-4 -40 -16 -44 -79 -30
-69 15 -116 37 -108 51 4 6 45 9 98 7 91 -3 92 -3 89 -28z m170 0 c192 -40
223 -70 71 -70 -88 0 -221 15 -232 25 -2 3 2 18 9 35 15 36 20 36 152 10z"/>
<path d="M1315 218 c-158 -141 -236 -218 -223 -218 8 0 19 5 24 10 20 20 145
24 194 6 58 -20 63 -20 55 3 -4 14 0 21 15 26 14 4 20 15 20 35 0 25 -5 31
-37 39 -21 6 -53 11 -71 11 -72 0 1 48 76 49 17 1 32 6 32 12 0 8 -14 10 -42
6 l-43 -5 43 38 c24 22 42 44 40 50 -1 5 -39 -22 -83 -62z m43 -119 c12 -5 22
-15 22 -23 0 -21 -34 -29 -133 -30 l-88 -1 40 37 c38 36 43 37 88 31 26 -3 58
-10 71 -14z"/>
</g>
</svg>
